<svg width="32" height="22" viewBox="0 0 32 22" fill="none" xmlns="http://www.w3.org/2000/svg">
<g clip-path="url(#clip0_63_350)">
<path d="M16.8801 14.3628C16.8401 14.2028 16.8201 14.0328 16.8201 13.8628C16.8201 13.6928 16.8501 13.5228 16.8801 13.3628H14.3701C14.4101 13.5228 14.4301 13.6928 14.4301 13.8628C14.4301 14.0328 14.4001 14.2028 14.3701 14.3628H16.8801Z" fill="white"/>
<path d="M15.9297 5.27283L17.9197 11.9728C18.2097 11.8128 18.5297 11.7028 18.8797 11.6828L17.0397 5.49283L27.2197 18.4128C27.5197 18.0028 27.9197 17.6728 28.3897 17.4728L17.8797 4.15283C17.4297 4.77283 16.7297 5.19283 15.9297 5.27283Z" fill="white"/>
<path d="M4.08992 18.4226L14.2099 5.5226L12.3799 11.6926C12.7299 11.7126 13.0499 11.8126 13.3399 11.9826L15.3299 5.2826C14.5299 5.1926 13.8299 4.7826 13.3799 4.1626L2.91992 17.4826C3.38992 17.6826 3.78992 18.0126 4.08992 18.4126V18.4226Z" fill="white"/>
<path d="M26.7801 20.823C26.7101 20.583 26.6701 20.333 26.6701 20.073C26.6701 19.503 26.8401 18.973 27.1401 18.523L21.0501 14.583C20.9401 14.903 20.7501 15.193 20.5101 15.423L26.5301 19.313H4.60012L10.7401 15.413C10.5001 15.183 10.3201 14.893 10.2101 14.563L4.12012 18.433C4.45012 18.893 4.65012 19.453 4.65012 20.063C4.65012 20.323 4.60012 20.573 4.54012 20.813H26.7901L26.7801 20.823Z" fill="white"/>
<path d="M15.6303 4.31287C16.6299 4.31287 17.4403 3.50251 17.4403 2.50287C17.4403 1.50324 16.6299 0.692871 15.6303 0.692871C14.6307 0.692871 13.8203 1.50324 13.8203 2.50287C13.8203 3.50251 14.6307 4.31287 15.6303 4.31287Z" fill="white"/>
<path d="M1.81 21.9027C2.80964 21.9027 3.62 21.0923 3.62 20.0927C3.62 19.0931 2.80964 18.2827 1.81 18.2827C0.810365 18.2827 0 19.0931 0 20.0927C0 21.0923 0.810365 21.9027 1.81 21.9027Z" fill="white"/>
<path d="M18.9804 15.1927C19.7104 15.1927 20.3104 14.6027 20.3104 13.8627C20.3104 13.1227 19.7204 12.5327 18.9804 12.5327C18.2404 12.5327 17.6504 13.1227 17.6504 13.8627C17.6504 14.6027 18.2404 15.1927 18.9804 15.1927Z" fill="white"/>
<path d="M12.2704 15.1927C13.0004 15.1927 13.6004 14.5927 13.6004 13.8627C13.6004 13.1327 13.0004 12.5327 12.2704 12.5327C11.5404 12.5327 10.9404 13.1327 10.9404 13.8627C10.9404 14.5927 11.5404 15.1927 12.2704 15.1927Z" fill="white"/>
<path d="M29.4399 18.293C28.4399 18.293 27.6299 19.103 27.6299 20.103C27.6299 21.103 28.4399 21.913 29.4399 21.913C30.4399 21.913 31.2499 21.103 31.2499 20.103C31.2499 19.103 30.4399 18.293 29.4399 18.293Z" fill="white"/>
</g>
<defs>
<clipPath id="clip0_63_350">
<rect width="31.25" height="21.21" fill="white" transform="translate(0 0.692871)"/>
</clipPath>
</defs>
</svg>
